<svg xmlns="http://www.w3.org/2000/svg" xmlns:xlink="http://www.w3.org/1999/xlink" width="6912" zoomAndPan="magnify" viewBox="0 0 5184 2592.000001" height="3456" preserveAspectRatio="xMidYMid meet" version="1.0"><defs><g/><clipPath id="6a294e3cea"><path d="M 683 1280 L 1787 1280 L 1787 2249 L 683 2249 Z M 683 1280 " clip-rule="nonzero"/></clipPath><clipPath id="a315b8e238"><path d="M 856.96875 1149.710938 L 1929.4375 1403.964844 L 1722.019531 2278.871094 L 649.550781 2024.617188 Z M 856.96875 1149.710938 " clip-rule="nonzero"/></clipPath><clipPath id="221c3d169d"><path d="M 856.96875 1149.710938 L 1929.4375 1403.964844 L 1722.019531 2278.871094 L 649.550781 2024.617188 Z M 856.96875 1149.710938 " clip-rule="nonzero"/></clipPath><clipPath id="50619af1f5"><path d="M 3862 1152 L 4110.234375 1152 L 4110.234375 1352.734375 L 3862 1352.734375 Z M 3862 1152 " clip-rule="nonzero"/></clipPath><clipPath id="88cdf33e5a"><path d="M 3454 2133 L 3679 2133 L 3679 2378.816406 L 3454 2378.816406 Z M 3454 2133 " clip-rule="nonzero"/></clipPath></defs><g fill="#ffffff" fill-opacity="1"><g transform="translate(646.5375, 1179.479847)"><g><path d="M 356.859375 23.796875 C 350.816406 21.523438 346.285156 17.367188 343.265625 11.328125 L 342.125 2.265625 L 339.859375 2.265625 L 327.40625 5.671875 L 314.9375 -1.140625 C 310.40625 -9.441406 308.140625 -18.878906 308.140625 -29.453125 C 299.835938 -28.703125 293.414062 -31.347656 288.875 -37.390625 L 287.75 -39.65625 L 285.484375 -39.65625 C 282.460938 -35.125 278.6875 -32.101562 274.15625 -30.59375 L 263.953125 -30.59375 C 257.910156 -32.851562 253.378906 -37.003906 250.359375 -43.046875 L 250.359375 -45.3125 C 243.566406 -45.3125 238.28125 -47.957031 234.5 -53.25 L 233.375 -55.515625 L 231.109375 -55.515625 C 232.617188 -44.179688 230.726562 -34.738281 225.4375 -27.1875 C 220.15625 -23.414062 213.738281 -21.90625 206.1875 -22.65625 C 199.382812 -24.925781 194.851562 -29.457031 192.59375 -36.25 C 187.300781 -46.070312 184.65625 -57.398438 184.65625 -70.234375 C 179.375 -72.503906 175.597656 -76.28125 173.328125 -81.5625 L 172.203125 -99.6875 C 178.242188 -203.914062 192.210938 -309.648438 214.109375 -416.890625 C 236.015625 -524.128906 261.316406 -627.597656 290.015625 -727.296875 C 294.546875 -731.066406 300.210938 -732.578125 307.015625 -731.828125 L 319.46875 -726.15625 L 329.671875 -735.21875 L 333.0625 -735.21875 L 334.203125 -743.15625 L 322.875 -743.15625 C 276.800781 -738.625 230.914062 -733.710938 185.21875 -728.421875 C 139.53125 -723.128906 94.03125 -716.332031 48.71875 -708.03125 L 37.390625 -713.6875 C 32.859375 -718.976562 30.96875 -725.023438 31.71875 -731.828125 L 38.515625 -743.15625 C 50.597656 -748.4375 63.4375 -751.457031 77.03125 -752.21875 L 78.171875 -766.9375 C 75.148438 -771.46875 74.015625 -776.378906 74.765625 -781.671875 L 81.5625 -793 L 91.765625 -797.53125 L 91.765625 -802.0625 L 90.625 -811.125 L 101.953125 -836.046875 L 105.359375 -837.171875 L 111.015625 -847.375 C 190.316406 -861.71875 269.617188 -875.6875 348.921875 -889.28125 C 428.222656 -902.882812 508.65625 -910.816406 590.21875 -913.078125 L 602.671875 -905.15625 L 606.078125 -894.953125 C 612.867188 -894.953125 618.53125 -892.6875 623.0625 -888.15625 C 626.84375 -884.382812 628.351562 -879.476562 627.59375 -873.4375 L 638.921875 -873.4375 L 657.046875 -874.5625 L 668.375 -867.765625 C 672.15625 -863.234375 673.664062 -857.566406 672.90625 -850.765625 L 671.78125 -845.109375 L 687.640625 -845.109375 L 714.828125 -847.375 L 727.296875 -839.4375 C 730.316406 -834.15625 731.445312 -828.113281 730.6875 -821.3125 L 717.09375 -799.796875 C 711.050781 -796.773438 703.875 -795.640625 695.5625 -796.390625 L 695.5625 -794.125 L 696.703125 -781.671875 L 689.90625 -771.46875 C 648.363281 -765.425781 606.445312 -761.269531 564.15625 -759 C 521.875 -756.738281 479.585938 -754.097656 437.296875 -751.078125 L 437.296875 -745.421875 L 438.421875 -738.625 L 427.09375 -675.171875 C 431.625 -667.617188 434.644531 -659.3125 436.15625 -650.25 L 435.03125 -643.453125 L 444.09375 -633.265625 L 445.21875 -623.0625 C 432.375 -558.863281 421.039062 -492.023438 411.21875 -422.546875 C 401.40625 -353.078125 394.234375 -285.863281 389.703125 -220.90625 L 389.703125 -172.203125 L 391.96875 -126.875 C 385.925781 -114.789062 383.09375 -101.195312 383.46875 -86.09375 C 383.851562 -70.988281 383.289062 -56.265625 381.78125 -41.921875 L 381.78125 6.796875 L 374.984375 19.265625 C 369.691406 23.035156 363.648438 24.546875 356.859375 23.796875 Z M 356.859375 23.796875 "/></g></g></g><g fill="#ffffff" fill-opacity="1"><g transform="translate(1307.967841, 1179.479847)"><g><path d="M 290.015625 26.0625 C 283.972656 23.789062 279.441406 19.632812 276.421875 13.59375 L 274.15625 9.0625 C 270.375 6.039062 265.84375 4.910156 260.5625 5.671875 L 256.03125 14.734375 C 249.226562 22.285156 240.921875 25.679688 231.109375 24.921875 L 220.90625 19.265625 L 216.375 15.859375 C 210.332031 23.410156 202.78125 26.054688 193.71875 23.796875 L 184.65625 18.125 L 180.125 3.40625 C 174.84375 3.40625 169.9375 1.515625 165.40625 -2.265625 C 159.363281 -12.835938 157.472656 -24.921875 159.734375 -38.515625 C 162.753906 -103.460938 168.039062 -157.835938 175.59375 -201.640625 C 183.144531 -245.453125 195.226562 -298.703125 211.84375 -361.390625 C 204.289062 -360.628906 197.875 -362.515625 192.59375 -367.046875 C 188.0625 -362.515625 182.394531 -360.628906 175.59375 -361.390625 L 164.265625 -368.1875 L 160.875 -372.71875 L 156.34375 -372.71875 L 148.40625 -371.578125 L 135.9375 -379.515625 C 114.039062 -457.304688 94.972656 -535.660156 78.734375 -614.578125 C 62.492188 -693.492188 50.222656 -772.601562 41.921875 -851.90625 L 48.71875 -863.234375 L 58.90625 -868.890625 L 61.171875 -875.703125 L 60.046875 -885.890625 L 66.84375 -897.21875 C 71.375 -901 77.035156 -902.507812 83.828125 -901.75 C 88.359375 -898.726562 93.644531 -896.84375 99.6875 -896.09375 L 108.75 -897.21875 L 118.953125 -891.5625 L 125.75 -879.09375 C 131.789062 -876.832031 136.320312 -872.675781 139.34375 -866.625 C 162 -798.65625 186.921875 -731.628906 214.109375 -665.546875 C 241.296875 -599.460938 270.375 -534.328125 301.34375 -470.140625 L 304.75 -469.015625 C 347.039062 -539.992188 392.539062 -609.09375 441.25 -676.3125 C 489.957031 -743.53125 541.125 -808.484375 594.75 -871.171875 C 603.050781 -870.410156 610.222656 -873.050781 616.265625 -879.09375 C 619.285156 -885.894531 624.195312 -890.804688 631 -893.828125 L 642.328125 -894.953125 L 652.515625 -889.296875 C 656.296875 -884.765625 658.1875 -879.097656 658.1875 -872.296875 C 655.914062 -866.253906 652.515625 -860.210938 647.984375 -854.171875 L 651.390625 -843.96875 L 653.65625 -843.96875 L 662.71875 -845.109375 L 672.90625 -839.4375 L 678.578125 -834.90625 L 684.234375 -845.109375 C 688.765625 -848.878906 694.429688 -850.390625 701.234375 -849.640625 L 711.421875 -843.96875 C 715.203125 -839.4375 717.09375 -833.773438 717.09375 -826.984375 C 665.738281 -744.660156 612.304688 -663.285156 556.796875 -582.859375 C 501.296875 -502.429688 451.640625 -418.410156 407.828125 -330.796875 C 403.296875 -327.023438 397.632812 -325.140625 390.84375 -325.140625 L 382.90625 -327.40625 C 373.84375 -278.3125 369.3125 -238.46875 369.3125 -207.875 C 369.3125 -177.289062 368.554688 -136.695312 367.046875 -86.09375 L 367.046875 -9.0625 L 361.390625 2.265625 C 356.097656 6.796875 350.054688 8.6875 343.265625 7.9375 L 331.9375 1.140625 C 326.644531 -4.148438 321.734375 -10.195312 317.203125 -17 L 314.9375 -17 C 317.207031 -2.644531 314.941406 10.195312 308.140625 21.53125 C 302.859375 25.300781 296.816406 26.8125 290.015625 26.0625 Z M 290.015625 26.0625 "/></g></g></g><g fill="#ffffff" fill-opacity="1"><g transform="translate(1888.970117, 1179.479847)"><g><path d="M 182.390625 21.53125 L 169.9375 14.734375 L 165.40625 2.265625 L 162 2.265625 C 158.226562 4.535156 153.695312 5.289062 148.40625 4.53125 C 142.363281 2.269531 137.832031 -1.882812 134.8125 -7.9375 L 134.8125 -11.328125 L 131.40625 -11.328125 C 131.40625 -6.796875 129.140625 -3.019531 124.609375 0 C 119.328125 3.019531 113.285156 4.15625 106.484375 3.40625 C 106.484375 7.9375 104.21875 11.710938 99.6875 14.734375 C 95.15625 17.753906 89.867188 18.882812 83.828125 18.125 L 73.640625 12.46875 L 67.96875 -2.265625 L 72.5 -27.1875 L 69.109375 -27.1875 L 62.3125 -26.0625 L 50.984375 -31.71875 C 44.941406 -42.289062 43.050781 -54.375 45.3125 -67.96875 C 51.351562 -164.644531 62.492188 -260.75 78.734375 -356.28125 C 94.972656 -451.820312 111.773438 -547.171875 129.140625 -642.328125 L 125.75 -643.453125 C 120.457031 -648.742188 117.8125 -655.539062 117.8125 -663.84375 L 125.75 -679.703125 L 124.609375 -688.765625 L 135.9375 -705.765625 L 147.28125 -715.953125 C 152.5625 -739.367188 158.410156 -762.59375 164.828125 -785.625 C 171.253906 -808.664062 179 -831.515625 188.0625 -854.171875 C 192.59375 -857.941406 198.253906 -859.453125 205.046875 -858.703125 L 215.25 -854.171875 C 219.78125 -858.703125 224.3125 -863.988281 228.84375 -870.03125 C 231.101562 -880.601562 234.878906 -890.421875 240.171875 -899.484375 C 244.703125 -903.265625 250.363281 -904.773438 257.15625 -904.015625 L 267.359375 -898.359375 C 271.128906 -893.828125 273.015625 -888.160156 273.015625 -881.359375 L 270.75 -868.890625 L 274.15625 -868.890625 C 278.6875 -871.921875 283.59375 -873.054688 288.875 -872.296875 L 299.078125 -866.625 C 302.859375 -862.09375 304.75 -856.429688 304.75 -849.640625 L 299.078125 -817.921875 L 302.484375 -817.921875 C 340.242188 -835.285156 378.570312 -848.878906 417.46875 -858.703125 C 456.363281 -868.523438 496.570312 -873.054688 538.09375 -872.296875 C 569.820312 -868.515625 600.222656 -861.90625 629.296875 -852.46875 C 658.367188 -843.03125 684.234375 -826.984375 706.890625 -804.328125 C 716.710938 -792.242188 723.703125 -779.210938 727.859375 -765.234375 C 732.015625 -751.265625 733.710938 -736.347656 732.953125 -720.484375 C 718.597656 -651.765625 687.441406 -591.726562 639.484375 -540.375 C 591.523438 -489.019531 546.40625 -436.15625 504.125 -381.78125 L 501.859375 -381.78125 L 481.46875 -357.984375 C 466.363281 -344.390625 451.445312 -330.796875 436.71875 -317.203125 C 421.988281 -303.609375 405.941406 -293.789062 388.578125 -287.75 L 376.109375 -293.421875 L 361.390625 -285.484375 L 361.390625 -283.21875 C 356.097656 -278.6875 349.675781 -277.175781 342.125 -278.6875 L 333.0625 -284.34375 C 329.289062 -288.882812 327.40625 -293.796875 327.40625 -299.078125 L 331.9375 -311.546875 L 329.671875 -311.546875 C 318.335938 -298.703125 304.738281 -290.769531 288.875 -287.75 L 277.546875 -294.546875 C 273.773438 -299.078125 272.265625 -304.742188 273.015625 -311.546875 L 279.8125 -322.875 L 284.34375 -328.53125 L 276.421875 -331.9375 C 271.890625 -337.21875 270 -343.632812 270.75 -351.1875 L 271.890625 -354.59375 L 262.828125 -362.515625 L 262.828125 -364.78125 L 260.5625 -364.78125 L 248.09375 -357.984375 C 244.320312 -311.160156 240.925781 -264.335938 237.90625 -217.515625 C 234.882812 -170.691406 229.21875 -125 220.90625 -80.4375 L 205.046875 -77.03125 L 203.921875 -52.109375 L 203.921875 7.9375 C 201.648438 13.976562 197.492188 18.128906 191.453125 20.390625 Z M 258.296875 -408.96875 C 288.503906 -428.601562 318.332031 -449.179688 347.78125 -470.703125 C 377.238281 -492.234375 406.320312 -514.320312 435.03125 -536.96875 L 435.03125 -539.234375 L 440.6875 -544.890625 L 442.953125 -544.890625 C 462.585938 -569.066406 482.597656 -593.238281 502.984375 -617.40625 C 523.367188 -641.570312 535.828125 -669.132812 540.359375 -700.09375 C 539.609375 -714.445312 533.191406 -726.535156 521.109375 -736.359375 C 512.804688 -743.910156 503.179688 -747.492188 492.234375 -747.109375 C 481.285156 -746.734375 470.144531 -746.546875 458.8125 -746.546875 C 427.84375 -743.523438 397.820312 -737.859375 368.75 -729.546875 C 339.675781 -721.242188 310.785156 -711.050781 282.078125 -698.96875 C 276.796875 -650.632812 271.695312 -602.113281 266.78125 -553.40625 C 261.875 -504.695312 257.15625 -455.796875 252.625 -406.703125 L 254.890625 -406.703125 Z M 258.296875 -408.96875 "/></g></g></g><g fill="#ffffff" fill-opacity="1"><g transform="translate(2562.8612, 1179.479847)"><g><path d="M 216.375 62.3125 L 203.921875 54.375 C 200.140625 49.09375 199.003906 42.675781 200.515625 35.125 L 201.65625 28.328125 C 194.101562 29.078125 188.0625 26.8125 183.53125 21.53125 L 177.859375 10.203125 L 166.53125 4.53125 C 162 -0.757812 160.113281 -7.554688 160.875 -15.859375 L 162 -22.65625 L 155.203125 -22.65625 C 155.203125 -9.820312 152.179688 1.882812 146.140625 12.46875 C 141.609375 16.238281 135.941406 17.75 129.140625 17 L 117.8125 10.203125 L 114.421875 1.140625 L 111.015625 1.140625 L 96.296875 3.40625 L 83.828125 -6.796875 L 81.5625 -17 C 101.195312 -155.207031 123.851562 -292.847656 149.53125 -429.921875 C 175.21875 -566.992188 207.695312 -702.367188 246.96875 -836.046875 C 251.5 -839.816406 257.160156 -841.328125 263.953125 -840.578125 L 269.625 -839.4375 C 271.132812 -850.007812 274.910156 -859.453125 280.953125 -867.765625 C 286.234375 -870.785156 291.898438 -872.675781 297.953125 -873.4375 C 300.210938 -878.71875 303.988281 -882.492188 309.28125 -884.765625 L 320.609375 -885.890625 L 330.796875 -880.234375 C 334.578125 -875.703125 336.46875 -870.035156 336.46875 -863.234375 L 335.328125 -854.171875 L 336.46875 -849.640625 C 344.019531 -850.390625 350.4375 -848.5 355.71875 -843.96875 C 359.5 -839.4375 361.390625 -833.773438 361.390625 -826.984375 C 334.953125 -693.304688 315.691406 -558.6875 303.609375 -423.125 C 291.523438 -287.5625 278.6875 -152.941406 265.09375 -19.265625 L 259.421875 -17 C 260.179688 -1.882812 257.160156 11.332031 250.359375 22.65625 L 241.296875 28.328125 C 241.296875 39.648438 238.273438 49.46875 232.234375 57.78125 C 227.703125 61.550781 222.414062 63.0625 216.375 62.3125 Z M 216.375 62.3125 "/></g></g></g><g fill="#ffffff" fill-opacity="1"><g transform="translate(2903.712028, 1179.479847)"><g><path d="M 167.671875 23.796875 L 157.46875 17 C 152.9375 1.882812 151.425781 -14.734375 152.9375 -32.859375 L 141.609375 -35.125 C 135.566406 -27.570312 128.015625 -24.925781 118.953125 -27.1875 C 112.910156 -29.457031 108.753906 -33.613281 106.484375 -39.65625 L 103.09375 -60.046875 L 95.15625 -69.109375 L 94.03125 -78.171875 L 91.765625 -78.171875 L 87.234375 -67.96875 C 81.941406 -63.4375 75.898438 -61.550781 69.109375 -62.3125 C 60.796875 -61.550781 54 -64.191406 48.71875 -70.234375 C 44.1875 -83.078125 42.675781 -97.050781 44.1875 -112.15625 C 48.71875 -233 61.175781 -353.082031 81.5625 -472.40625 C 101.957031 -591.726562 129.523438 -709.164062 164.265625 -824.71875 L 169.9375 -826.984375 C 171.445312 -836.796875 174.84375 -845.859375 180.125 -854.171875 C 184.65625 -857.941406 190.320312 -859.453125 197.125 -858.703125 L 207.3125 -853.03125 L 211.84375 -845.109375 L 214.109375 -845.109375 C 219.398438 -850.390625 225.820312 -852.65625 233.375 -851.90625 L 243.5625 -846.234375 C 248.09375 -834.910156 252.25 -823.582031 256.03125 -812.25 L 258.296875 -812.25 C 264.335938 -817.539062 271.890625 -819.429688 280.953125 -817.921875 L 291.15625 -812.25 C 294.925781 -807.71875 296.8125 -802.054688 296.8125 -795.265625 L 294.546875 -783.9375 L 297.953125 -782.796875 C 301.722656 -778.265625 303.609375 -772.601562 303.609375 -765.8125 C 280.953125 -688.019531 263.390625 -608.90625 250.921875 -528.46875 C 238.460938 -448.039062 231.101562 -367.421875 228.84375 -286.609375 L 228.84375 -206.1875 L 227.703125 -190.328125 L 228.84375 -189.1875 L 228.84375 -105.359375 L 231.109375 -63.4375 L 224.3125 -49.84375 C 219.78125 -46.070312 214.113281 -44.5625 207.3125 -45.3125 L 195.984375 -52.109375 L 194.859375 -54.375 L 192.59375 -54.375 L 192.59375 7.9375 L 185.796875 19.265625 C 180.503906 23.035156 174.460938 24.546875 167.671875 23.796875 Z M 634.390625 14.734375 L 621.9375 3.40625 L 620.796875 -18.125 L 623.0625 -47.578125 L 620.796875 -47.578125 L 612.875 -32.859375 C 608.34375 -29.835938 602.675781 -28.703125 595.875 -29.453125 L 592.484375 -30.59375 L 592.484375 -28.328125 L 597.015625 -7.9375 L 590.21875 4.53125 C 584.925781 8.3125 578.878906 9.820312 572.078125 9.0625 L 561.890625 2.265625 C 522.628906 -107.242188 477.507812 -214.675781 426.53125 -320.03125 C 375.550781 -425.394531 329.664062 -532.445312 288.875 -641.1875 L 295.6875 -652.515625 C 303.238281 -657.046875 311.921875 -659.3125 321.734375 -659.3125 L 331.9375 -653.65625 L 344.390625 -638.921875 L 353.453125 -646.859375 L 364.78125 -647.984375 L 374.984375 -642.328125 L 381.78125 -628.734375 L 390.84375 -624.203125 C 427.09375 -561.515625 464.660156 -499.582031 503.546875 -438.40625 C 542.441406 -377.238281 577.375 -314.179688 608.34375 -249.234375 L 610.609375 -249.234375 C 614.378906 -336.085938 624.757812 -422.5625 641.75 -508.65625 C 658.75 -594.75 681.972656 -678.957031 711.421875 -761.28125 C 715.953125 -765.050781 721.617188 -766.5625 728.421875 -765.8125 L 737.484375 -762.40625 C 739.753906 -767.695312 743.53125 -771.472656 748.8125 -773.734375 L 760.140625 -774.875 L 773.734375 -769.203125 L 782.796875 -770.34375 L 793 -764.671875 L 798.65625 -753.34375 L 815.65625 -746.546875 C 821.695312 -742.015625 826.984375 -736.726562 831.515625 -730.6875 L 832.640625 -720.484375 L 831.515625 -714.828125 L 837.171875 -711.421875 L 843.96875 -698.96875 L 851.90625 -689.90625 L 853.03125 -679.703125 C 831.882812 -598.890625 815.835938 -517.132812 804.890625 -434.4375 C 793.941406 -351.75 787.332031 -268.867188 785.0625 -185.796875 L 785.0625 -62.3125 L 787.328125 -28.328125 L 779.40625 -14.734375 C 774.113281 -11.710938 768.070312 -10.578125 761.28125 -11.328125 L 748.8125 -22.65625 L 747.6875 -28.328125 L 744.28125 -28.328125 C 739.75 -25.304688 734.84375 -24.171875 729.5625 -24.921875 L 720.484375 -29.453125 L 714.828125 -36.25 L 709.15625 -36.25 L 703.5 -33.984375 L 697.828125 -21.53125 L 693.296875 -18.125 L 693.296875 -7.9375 L 694.4375 -3.40625 L 686.5 10.203125 L 671.78125 14.734375 L 655.921875 7.9375 C 650.628906 13.976562 643.453125 16.242188 634.390625 14.734375 Z M 634.390625 14.734375 "/></g></g></g><g fill="#ffffff" fill-opacity="1"><g transform="translate(3697.678697, 1179.479847)"><g><path d="M 628.734375 41.921875 L 617.40625 37.390625 L 617.40625 35.125 L 615.140625 35.125 L 610.609375 23.796875 L 608.34375 23.796875 L 604.9375 32.859375 C 600.40625 37.390625 594.742188 39.65625 587.953125 39.65625 L 574.34375 31.71875 C 570.570312 26.4375 569.0625 20.394531 569.8125 13.59375 L 570.953125 6.796875 L 569.8125 -7.9375 L 572.078125 -43.046875 C 566.035156 -49.847656 563.769531 -58.15625 565.28125 -67.96875 L 567.546875 -87.234375 L 565.28125 -87.234375 C 515.445312 -57.773438 463.71875 -31.523438 410.09375 -8.484375 C 356.476562 14.546875 300.59375 25.304688 242.4375 23.796875 C 213.738281 22.285156 187.300781 14.164062 163.125 -0.5625 C 138.957031 -15.289062 115.925781 -32.097656 94.03125 -50.984375 L 92.890625 -54.375 L 90.625 -54.375 C 74.007812 -72.5 63.054688 -93.269531 57.765625 -116.6875 C 52.484375 -140.101562 50.222656 -164.269531 50.984375 -189.1875 L 50.984375 -236.765625 C 66.085938 -327.398438 91.953125 -415.195312 128.578125 -500.15625 C 165.210938 -585.113281 212.984375 -663.46875 271.890625 -735.21875 L 274.15625 -735.21875 C 281.707031 -745.039062 290.015625 -754.859375 299.078125 -764.671875 C 308.140625 -774.492188 317.203125 -783.9375 326.265625 -793 C 361.765625 -825.46875 400.847656 -854.164062 443.515625 -879.09375 C 486.191406 -904.019531 532.445312 -918.367188 582.28125 -922.140625 C 595.125 -919.878906 607.394531 -915.535156 619.09375 -909.109375 C 630.800781 -902.691406 641.566406 -894.195312 651.390625 -883.625 C 669.515625 -863.988281 681.972656 -842.273438 688.765625 -818.484375 C 695.566406 -794.691406 698.210938 -769.203125 696.703125 -742.015625 L 689.90625 -726.15625 C 685.375 -722.375 679.707031 -720.484375 672.90625 -720.484375 L 660.453125 -728.421875 L 657.046875 -736.359375 L 654.78125 -736.359375 C 653.269531 -727.285156 649.875 -719.351562 644.59375 -712.5625 C 640.0625 -708.78125 634.394531 -707.269531 627.59375 -708.03125 L 617.40625 -713.6875 L 612.875 -717.09375 C 612.875 -708.03125 609.851562 -700.476562 603.8125 -694.4375 C 598.519531 -691.414062 592.476562 -690.28125 585.6875 -691.03125 L 575.484375 -696.703125 L 568.6875 -684.234375 C 563.394531 -680.460938 557.351562 -678.953125 550.5625 -679.703125 L 540.359375 -685.375 C 536.585938 -703.5 532.4375 -721.4375 527.90625 -739.1875 C 523.375 -756.9375 516.957031 -774.117188 508.65625 -790.734375 L 505.265625 -790.734375 C 486.378906 -780.910156 468.4375 -768.820312 451.4375 -754.46875 C 434.445312 -740.125 418.023438 -724.644531 402.171875 -708.03125 L 391.96875 -695.5625 L 389.703125 -695.5625 C 331.554688 -625.332031 282.46875 -548.679688 242.4375 -465.609375 C 202.40625 -382.535156 179.367188 -294.925781 173.328125 -202.78125 C 173.328125 -192.207031 175.023438 -182.390625 178.421875 -173.328125 C 181.828125 -164.265625 187.679688 -156.335938 195.984375 -149.546875 C 206.554688 -140.472656 218.453125 -134.425781 231.671875 -131.40625 C 244.890625 -128.382812 259.050781 -127.253906 274.15625 -128.015625 C 338.351562 -137.078125 396.316406 -160.675781 448.046875 -198.8125 C 499.773438 -236.957031 550.1875 -276.421875 599.28125 -317.203125 L 603.8125 -337.59375 L 599.28125 -337.59375 L 402.171875 -299.078125 L 390.84375 -304.75 C 386.3125 -310.03125 384.421875 -316.070312 385.171875 -322.875 C 389.703125 -336.46875 395.742188 -349.304688 403.296875 -361.390625 C 415.378906 -365.921875 428.222656 -368.5625 441.828125 -369.3125 L 441.828125 -372.71875 L 438.421875 -372.71875 L 431.625 -371.578125 L 420.296875 -377.25 C 415.765625 -382.53125 413.875 -388.570312 414.625 -395.375 L 421.421875 -406.703125 C 427.460938 -410.472656 434.265625 -412.359375 441.828125 -412.359375 C 441.828125 -419.160156 444.09375 -424.828125 448.625 -429.359375 C 499.96875 -440.691406 551.882812 -450.320312 604.375 -458.25 C 656.863281 -466.175781 709.539062 -472.785156 762.40625 -478.078125 L 828.109375 -478.078125 L 843.96875 -472.40625 C 850.007812 -461.832031 853.785156 -450.882812 855.296875 -439.5625 L 849.640625 -429.359375 C 839.066406 -424.066406 826.984375 -421.800781 813.390625 -422.5625 L 813.390625 -420.296875 L 816.78125 -419.15625 L 823.578125 -420.296875 L 834.90625 -414.625 C 839.4375 -409.34375 841.328125 -403.300781 840.578125 -396.5 C 840.578125 -388.945312 838.3125 -382.53125 833.78125 -377.25 C 822.445312 -372.71875 810.171875 -369.882812 796.953125 -368.75 C 783.742188 -367.613281 771.097656 -365.535156 759.015625 -362.515625 C 753.722656 -342.878906 748.8125 -323.050781 744.28125 -303.03125 C 739.75 -283.019531 735.972656 -262.441406 732.953125 -241.296875 L 734.09375 -228.84375 C 725.019531 -191.832031 719.347656 -153.691406 717.078125 -114.421875 C 714.816406 -75.148438 710.289062 -36.628906 703.5 1.140625 C 698.207031 4.910156 691.785156 6.421875 684.234375 5.671875 L 674.046875 -1.140625 L 670.640625 -5.671875 L 658.1875 -5.671875 C 652.894531 8.679688 647.609375 23.035156 642.328125 37.390625 Z M 628.734375 41.921875 "/></g></g></g><g fill="#ffffff" fill-opacity="1"><g transform="translate(1855.006896, 2209.160128)"><g><path d="M 677.4375 47.578125 L 668.375 41.921875 L 651.390625 4.53125 L 647.984375 3.40625 C 643.453125 7.175781 638.164062 9.0625 632.125 9.0625 C 623.820312 9.820312 616.648438 6.800781 610.609375 0 L 600.40625 -19.265625 L 598.140625 -19.265625 C 592.859375 -14.734375 586.4375 -13.222656 578.875 -14.734375 L 566.421875 -26.0625 C 537.722656 -87.226562 510.160156 -148.773438 483.734375 -210.703125 C 457.304688 -272.640625 434.648438 -335.707031 415.765625 -399.90625 L 424.828125 -415.765625 L 430.484375 -418.03125 L 430.484375 -422.5625 L 425.953125 -435.03125 L 423.6875 -435.03125 C 415.382812 -420.675781 405.566406 -407.832031 394.234375 -396.5 C 388.191406 -390.457031 380.640625 -387.0625 371.578125 -386.3125 L 364.78125 -387.4375 L 362.515625 -384.046875 C 357.234375 -379.515625 350.816406 -378.003906 343.265625 -379.515625 L 334.203125 -385.171875 C 327.398438 -387.441406 320.222656 -389.707031 312.671875 -391.96875 L 305.875 -402.171875 L 303.609375 -402.171875 C 298.328125 -399.148438 292.285156 -397.640625 285.484375 -397.640625 C 277.929688 -336.460938 270.378906 -275.285156 262.828125 -214.109375 C 255.273438 -152.929688 245.078125 -92.515625 232.234375 -32.859375 L 227.703125 -29.453125 C 227.703125 -20.390625 225.0625 -12.460938 219.78125 -5.671875 C 214.488281 -1.890625 208.066406 -0.378906 200.515625 -1.140625 L 195.984375 5.671875 C 190.703125 8.691406 184.660156 9.820312 177.859375 9.0625 L 165.40625 -2.265625 L 164.265625 -26.0625 L 162 -26.0625 C 162.757812 -13.976562 160.117188 -3.398438 154.078125 5.671875 C 148.785156 9.441406 142.738281 10.953125 135.9375 10.203125 L 120.078125 1.140625 L 113.28125 2.265625 L 100.828125 -5.671875 L 96.296875 -20.390625 L 104.21875 -77.03125 L 100.828125 -87.234375 L 98.5625 -87.234375 C 95.539062 -72.128906 93.273438 -56.832031 91.765625 -41.34375 C 90.253906 -25.863281 86.851562 -11.328125 81.5625 2.265625 C 77.03125 6.046875 71.367188 7.554688 64.578125 6.796875 L 54.375 1.140625 C 50.601562 -3.398438 48.71875 -9.066406 48.71875 -15.859375 C 69.101562 -172.191406 94.210938 -327.578125 124.046875 -482.015625 C 153.878906 -636.460938 188.429688 -789.96875 227.703125 -942.53125 C 236.765625 -948.570312 246.960938 -952.347656 258.296875 -953.859375 L 268.484375 -948.203125 C 273.015625 -942.160156 275.28125 -935.363281 275.28125 -927.8125 C 280.570312 -925.539062 284.347656 -921.765625 286.609375 -916.484375 L 292.28125 -916.484375 L 301.34375 -917.609375 L 311.546875 -911.953125 L 317.203125 -900.625 C 324.753906 -900.625 331.175781 -898.359375 336.46875 -893.828125 C 341.75 -887.023438 343.632812 -879.09375 342.125 -870.03125 C 334.570312 -802.0625 326.265625 -733.898438 317.203125 -665.546875 C 308.140625 -597.191406 300.210938 -529.035156 293.421875 -461.078125 L 294.546875 -461.078125 C 340.617188 -532.816406 389.328125 -603.050781 440.671875 -671.78125 C 492.023438 -740.507812 545.648438 -807.726562 601.546875 -873.4375 L 612.875 -874.5625 L 625.328125 -870.03125 L 637.796875 -872.296875 L 650.25 -867.765625 C 660.820312 -872.296875 671.773438 -875.316406 683.109375 -876.828125 L 693.296875 -871.171875 C 697.078125 -866.628906 698.96875 -860.960938 698.96875 -854.171875 L 705.765625 -853.03125 C 711.804688 -860.582031 719.359375 -863.984375 728.421875 -863.234375 L 738.625 -857.5625 C 742.394531 -853.03125 744.28125 -847.367188 744.28125 -840.578125 C 741.257812 -833.773438 737.484375 -826.976562 732.953125 -820.1875 L 735.21875 -808.859375 C 689.144531 -752.210938 641.5625 -696.320312 592.46875 -641.1875 C 543.382812 -586.050781 496.191406 -529.414062 450.890625 -471.28125 L 454.28125 -470.140625 L 459.953125 -465.609375 L 467.875 -482.609375 C 472.40625 -486.378906 478.070312 -487.890625 484.875 -487.140625 L 495.0625 -481.46875 L 498.46875 -476.9375 L 503 -476.9375 L 512.046875 -478.078125 L 522.234375 -472.40625 C 562.265625 -402.164062 604.367188 -333.625 648.546875 -266.78125 C 692.734375 -199.945312 730.3125 -129.898438 761.28125 -56.640625 L 753.34375 -44.1875 L 745.421875 -40.78125 L 745.421875 -37.390625 L 747.6875 -27.1875 L 739.75 -13.59375 C 734.46875 -10.570312 728.425781 -9.441406 721.625 -10.203125 L 714.828125 -12.46875 L 714.828125 -10.203125 L 715.953125 0 L 710.296875 10.203125 L 698.96875 14.734375 L 698.96875 17 C 701.988281 21.53125 703.117188 27.191406 702.359375 33.984375 L 692.171875 46.453125 Z M 677.4375 47.578125 "/></g></g></g><g fill="#ffffff" fill-opacity="1"><g transform="translate(2562.881605, 2209.160128)"><g><path d="M 216.375 62.3125 L 203.921875 54.375 C 200.140625 49.09375 199.003906 42.675781 200.515625 35.125 L 201.65625 28.328125 C 194.101562 29.078125 188.0625 26.8125 183.53125 21.53125 L 177.859375 10.203125 L 166.53125 4.53125 C 162 -0.757812 160.113281 -7.554688 160.875 -15.859375 L 162 -22.65625 L 155.203125 -22.65625 C 155.203125 -9.820312 152.179688 1.882812 146.140625 12.46875 C 141.609375 16.238281 135.941406 17.75 129.140625 17 L 117.8125 10.203125 L 114.421875 1.140625 L 111.015625 1.140625 L 96.296875 3.40625 L 83.828125 -6.796875 L 81.5625 -17 C 101.195312 -155.207031 123.851562 -292.847656 149.53125 -429.921875 C 175.21875 -566.992188 207.695312 -702.367188 246.96875 -836.046875 C 251.5 -839.816406 257.160156 -841.328125 263.953125 -840.578125 L 269.625 -839.4375 C 271.132812 -850.007812 274.910156 -859.453125 280.953125 -867.765625 C 286.234375 -870.785156 291.898438 -872.675781 297.953125 -873.4375 C 300.210938 -878.71875 303.988281 -882.492188 309.28125 -884.765625 L 320.609375 -885.890625 L 330.796875 -880.234375 C 334.578125 -875.703125 336.46875 -870.035156 336.46875 -863.234375 L 335.328125 -854.171875 L 336.46875 -849.640625 C 344.019531 -850.390625 350.4375 -848.5 355.71875 -843.96875 C 359.5 -839.4375 361.390625 -833.773438 361.390625 -826.984375 C 334.953125 -693.304688 315.691406 -558.6875 303.609375 -423.125 C 291.523438 -287.5625 278.6875 -152.941406 265.09375 -19.265625 L 259.421875 -17 C 260.179688 -1.882812 257.160156 11.332031 250.359375 22.65625 L 241.296875 28.328125 C 241.296875 39.648438 238.273438 49.46875 232.234375 57.78125 C 227.703125 61.550781 222.414062 63.0625 216.375 62.3125 Z M 216.375 62.3125 "/></g></g></g><g fill="#ffffff" fill-opacity="1"><g transform="translate(2903.732492, 2209.160128)"><g><path d="M 167.671875 23.796875 L 157.46875 17 C 152.9375 1.882812 151.425781 -14.734375 152.9375 -32.859375 L 141.609375 -35.125 C 135.566406 -27.570312 128.015625 -24.925781 118.953125 -27.1875 C 112.910156 -29.457031 108.753906 -33.613281 106.484375 -39.65625 L 103.09375 -60.046875 L 95.15625 -69.109375 L 94.03125 -78.171875 L 91.765625 -78.171875 L 87.234375 -67.96875 C 81.941406 -63.4375 75.898438 -61.550781 69.109375 -62.3125 C 60.796875 -61.550781 54 -64.191406 48.71875 -70.234375 C 44.1875 -83.078125 42.675781 -97.050781 44.1875 -112.15625 C 48.71875 -233 61.175781 -353.082031 81.5625 -472.40625 C 101.957031 -591.726562 129.523438 -709.164062 164.265625 -824.71875 L 169.9375 -826.984375 C 171.445312 -836.796875 174.84375 -845.859375 180.125 -854.171875 C 184.65625 -857.941406 190.320312 -859.453125 197.125 -858.703125 L 207.3125 -853.03125 L 211.84375 -845.109375 L 214.109375 -845.109375 C 219.398438 -850.390625 225.820312 -852.65625 233.375 -851.90625 L 243.5625 -846.234375 C 248.09375 -834.910156 252.25 -823.582031 256.03125 -812.25 L 258.296875 -812.25 C 264.335938 -817.539062 271.890625 -819.429688 280.953125 -817.921875 L 291.15625 -812.25 C 294.925781 -807.71875 296.8125 -802.054688 296.8125 -795.265625 L 294.546875 -783.9375 L 297.953125 -782.796875 C 301.722656 -778.265625 303.609375 -772.601562 303.609375 -765.8125 C 280.953125 -688.019531 263.390625 -608.90625 250.921875 -528.46875 C 238.460938 -448.039062 231.101562 -367.421875 228.84375 -286.609375 L 228.84375 -206.1875 L 227.703125 -190.328125 L 228.84375 -189.1875 L 228.84375 -105.359375 L 231.109375 -63.4375 L 224.3125 -49.84375 C 219.78125 -46.070312 214.113281 -44.5625 207.3125 -45.3125 L 195.984375 -52.109375 L 194.859375 -54.375 L 192.59375 -54.375 L 192.59375 7.9375 L 185.796875 19.265625 C 180.503906 23.035156 174.460938 24.546875 167.671875 23.796875 Z M 634.390625 14.734375 L 621.9375 3.40625 L 620.796875 -18.125 L 623.0625 -47.578125 L 620.796875 -47.578125 L 612.875 -32.859375 C 608.34375 -29.835938 602.675781 -28.703125 595.875 -29.453125 L 592.484375 -30.59375 L 592.484375 -28.328125 L 597.015625 -7.9375 L 590.21875 4.53125 C 584.925781 8.3125 578.878906 9.820312 572.078125 9.0625 L 561.890625 2.265625 C 522.628906 -107.242188 477.507812 -214.675781 426.53125 -320.03125 C 375.550781 -425.394531 329.664062 -532.445312 288.875 -641.1875 L 295.6875 -652.515625 C 303.238281 -657.046875 311.921875 -659.3125 321.734375 -659.3125 L 331.9375 -653.65625 L 344.390625 -638.921875 L 353.453125 -646.859375 L 364.78125 -647.984375 L 374.984375 -642.328125 L 381.78125 -628.734375 L 390.84375 -624.203125 C 427.09375 -561.515625 464.660156 -499.582031 503.546875 -438.40625 C 542.441406 -377.238281 577.375 -314.179688 608.34375 -249.234375 L 610.609375 -249.234375 C 614.378906 -336.085938 624.757812 -422.5625 641.75 -508.65625 C 658.75 -594.75 681.972656 -678.957031 711.421875 -761.28125 C 715.953125 -765.050781 721.617188 -766.5625 728.421875 -765.8125 L 737.484375 -762.40625 C 739.753906 -767.695312 743.53125 -771.472656 748.8125 -773.734375 L 760.140625 -774.875 L 773.734375 -769.203125 L 782.796875 -770.34375 L 793 -764.671875 L 798.65625 -753.34375 L 815.65625 -746.546875 C 821.695312 -742.015625 826.984375 -736.726562 831.515625 -730.6875 L 832.640625 -720.484375 L 831.515625 -714.828125 L 837.171875 -711.421875 L 843.96875 -698.96875 L 851.90625 -689.90625 L 853.03125 -679.703125 C 831.882812 -598.890625 815.835938 -517.132812 804.890625 -434.4375 C 793.941406 -351.75 787.332031 -268.867188 785.0625 -185.796875 L 785.0625 -62.3125 L 787.328125 -28.328125 L 779.40625 -14.734375 C 774.113281 -11.710938 768.070312 -10.578125 761.28125 -11.328125 L 748.8125 -22.65625 L 747.6875 -28.328125 L 744.28125 -28.328125 C 739.75 -25.304688 734.84375 -24.171875 729.5625 -24.921875 L 720.484375 -29.453125 L 714.828125 -36.25 L 709.15625 -36.25 L 703.5 -33.984375 L 697.828125 -21.53125 L 693.296875 -18.125 L 693.296875 -7.9375 L 694.4375 -3.40625 L 686.5 10.203125 L 671.78125 14.734375 L 655.921875 7.9375 C 650.628906 13.976562 643.453125 16.242188 634.390625 14.734375 Z M 634.390625 14.734375 "/></g></g></g><g fill="#ffffff" fill-opacity="1"><g transform="translate(3697.699262, 2209.160128)"><g><path d="M 628.734375 41.921875 L 617.40625 37.390625 L 617.40625 35.125 L 615.140625 35.125 L 610.609375 23.796875 L 608.34375 23.796875 L 604.9375 32.859375 C 600.40625 37.390625 594.742188 39.65625 587.953125 39.65625 L 574.34375 31.71875 C 570.570312 26.4375 569.0625 20.394531 569.8125 13.59375 L 570.953125 6.796875 L 569.8125 -7.9375 L 572.078125 -43.046875 C 566.035156 -49.847656 563.769531 -58.15625 565.28125 -67.96875 L 567.546875 -87.234375 L 565.28125 -87.234375 C 515.445312 -57.773438 463.71875 -31.523438 410.09375 -8.484375 C 356.476562 14.546875 300.59375 25.304688 242.4375 23.796875 C 213.738281 22.285156 187.300781 14.164062 163.125 -0.5625 C 138.957031 -15.289062 115.925781 -32.097656 94.03125 -50.984375 L 92.890625 -54.375 L 90.625 -54.375 C 74.007812 -72.5 63.054688 -93.269531 57.765625 -116.6875 C 52.484375 -140.101562 50.222656 -164.269531 50.984375 -189.1875 L 50.984375 -236.765625 C 66.085938 -327.398438 91.953125 -415.195312 128.578125 -500.15625 C 165.210938 -585.113281 212.984375 -663.46875 271.890625 -735.21875 L 274.15625 -735.21875 C 281.707031 -745.039062 290.015625 -754.859375 299.078125 -764.671875 C 308.140625 -774.492188 317.203125 -783.9375 326.265625 -793 C 361.765625 -825.46875 400.847656 -854.164062 443.515625 -879.09375 C 486.191406 -904.019531 532.445312 -918.367188 582.28125 -922.140625 C 595.125 -919.878906 607.394531 -915.535156 619.09375 -909.109375 C 630.800781 -902.691406 641.566406 -894.195312 651.390625 -883.625 C 669.515625 -863.988281 681.972656 -842.273438 688.765625 -818.484375 C 695.566406 -794.691406 698.210938 -769.203125 696.703125 -742.015625 L 689.90625 -726.15625 C 685.375 -722.375 679.707031 -720.484375 672.90625 -720.484375 L 660.453125 -728.421875 L 657.046875 -736.359375 L 654.78125 -736.359375 C 653.269531 -727.285156 649.875 -719.351562 644.59375 -712.5625 C 640.0625 -708.78125 634.394531 -707.269531 627.59375 -708.03125 L 617.40625 -713.6875 L 612.875 -717.09375 C 612.875 -708.03125 609.851562 -700.476562 603.8125 -694.4375 C 598.519531 -691.414062 592.476562 -690.28125 585.6875 -691.03125 L 575.484375 -696.703125 L 568.6875 -684.234375 C 563.394531 -680.460938 557.351562 -678.953125 550.5625 -679.703125 L 540.359375 -685.375 C 536.585938 -703.5 532.4375 -721.4375 527.90625 -739.1875 C 523.375 -756.9375 516.957031 -774.117188 508.65625 -790.734375 L 505.265625 -790.734375 C 486.378906 -780.910156 468.4375 -768.820312 451.4375 -754.46875 C 434.445312 -740.125 418.023438 -724.644531 402.171875 -708.03125 L 391.96875 -695.5625 L 389.703125 -695.5625 C 331.554688 -625.332031 282.46875 -548.679688 242.4375 -465.609375 C 202.40625 -382.535156 179.367188 -294.925781 173.328125 -202.78125 C 173.328125 -192.207031 175.023438 -182.390625 178.421875 -173.328125 C 181.828125 -164.265625 187.679688 -156.335938 195.984375 -149.546875 C 206.554688 -140.472656 218.453125 -134.425781 231.671875 -131.40625 C 244.890625 -128.382812 259.050781 -127.253906 274.15625 -128.015625 C 338.351562 -137.078125 396.316406 -160.675781 448.046875 -198.8125 C 499.773438 -236.957031 550.1875 -276.421875 599.28125 -317.203125 L 603.8125 -337.59375 L 599.28125 -337.59375 L 402.171875 -299.078125 L 390.84375 -304.75 C 386.3125 -310.03125 384.421875 -316.070312 385.171875 -322.875 C 389.703125 -336.46875 395.742188 -349.304688 403.296875 -361.390625 C 415.378906 -365.921875 428.222656 -368.5625 441.828125 -369.3125 L 441.828125 -372.71875 L 438.421875 -372.71875 L 431.625 -371.578125 L 420.296875 -377.25 C 415.765625 -382.53125 413.875 -388.570312 414.625 -395.375 L 421.421875 -406.703125 C 427.460938 -410.472656 434.265625 -412.359375 441.828125 -412.359375 C 441.828125 -419.160156 444.09375 -424.828125 448.625 -429.359375 C 499.96875 -440.691406 551.882812 -450.320312 604.375 -458.25 C 656.863281 -466.175781 709.539062 -472.785156 762.40625 -478.078125 L 828.109375 -478.078125 L 843.96875 -472.40625 C 850.007812 -461.832031 853.785156 -450.882812 855.296875 -439.5625 L 849.640625 -429.359375 C 839.066406 -424.066406 826.984375 -421.800781 813.390625 -422.5625 L 813.390625 -420.296875 L 816.78125 -419.15625 L 823.578125 -420.296875 L 834.90625 -414.625 C 839.4375 -409.34375 841.328125 -403.300781 840.578125 -396.5 C 840.578125 -388.945312 838.3125 -382.53125 833.78125 -377.25 C 822.445312 -372.71875 810.171875 -369.882812 796.953125 -368.75 C 783.742188 -367.613281 771.097656 -365.535156 759.015625 -362.515625 C 753.722656 -342.878906 748.8125 -323.050781 744.28125 -303.03125 C 739.75 -283.019531 735.972656 -262.441406 732.953125 -241.296875 L 734.09375 -228.84375 C 725.019531 -191.832031 719.347656 -153.691406 717.078125 -114.421875 C 714.816406 -75.148438 710.289062 -36.628906 703.5 1.140625 C 698.207031 4.910156 691.785156 6.421875 684.234375 5.671875 L 674.046875 -1.140625 L 670.640625 -5.671875 L 658.1875 -5.671875 C 652.894531 8.679688 647.609375 23.035156 642.328125 37.390625 Z M 628.734375 41.921875 "/></g></g></g><g clip-path="url(#6a294e3cea)"><g clip-path="url(#a315b8e238)"><g clip-path="url(#221c3d169d)"><path fill="#ffffff" d="M 1420.796875 1321.304688 L 1427.238281 1324.753906 L 1426.914062 1326.390625 L 1420.128906 1324.757812 L 1420.796875 1321.304688 M 1415.253906 1394.113281 L 1413.636719 1406.042969 L 1405.195312 1415.476562 L 1405.382812 1413.859375 L 1406.796875 1403.6875 L 1415.253906 1394.113281 M 957.6875 1341.386719 L 956.257812 1343.917969 L 974.097656 1352.230469 L 975.863281 1351.136719 L 957.6875 1341.386719 M 992.777344 1340.664062 L 975.863281 1351.132812 L 999.457031 1363.785156 L 992.777344 1340.664062 M 999.460938 1363.785156 L 999.503906 1363.933594 L 999.546875 1364.085938 L 1003.144531 1365.761719 C 1001.914062 1365.101562 1000.6875 1364.441406 999.460938 1363.785156 M 961.242188 1367.863281 L 969.371094 1370.421875 L 961.371094 1369.589844 L 961.242188 1367.863281 M 978.964844 1375.078125 L 989.539062 1377.808594 L 989.253906 1378.398438 L 977.949219 1377.121094 L 978.964844 1375.078125 M 961.445312 1370.546875 L 972.417969 1373.382812 L 972.734375 1376.535156 L 961.808594 1375.300781 L 961.445312 1370.546875 M 953.921875 1368.601562 L 956.246094 1369.203125 L 956 1373.574219 L 956.054688 1374.648438 L 954.65625 1374.492188 L 953.921875 1368.601562 M 953.429688 1342.601562 L 940.859375 1367.132812 L 936.53125 1377.09375 L 938.328125 1377.777344 L 944.5625 1364.628906 L 956.257812 1343.917969 L 953.429688 1342.601562 M 938.328125 1377.773438 L 937.53125 1379.453125 L 935.78125 1383.136719 L 940.949219 1382.261719 L 942.277344 1379.273438 L 938.328125 1377.773438 M 1718.910156 1576.996094 L 1718.214844 1577.125 L 1707.265625 1575.707031 L 1701.835938 1573.328125 L 1700.261719 1572.707031 L 1718.910156 1576.996094 M 919.207031 1370.515625 L 904.761719 1379.96875 L 920.121094 1372.90625 L 915.074219 1376.453125 L 904.976562 1388.34375 L 920.78125 1385.671875 L 921.253906 1385.199219 L 921.851562 1385.488281 L 933.78125 1383.472656 L 936.53125 1377.09375 L 919.207031 1370.515625 M 1723.902344 1578.144531 L 1722.058594 1578.957031 L 1714.484375 1583.53125 L 1704.894531 1590.117188 L 1702.742188 1588.667969 L 1712.617188 1582.015625 L 1720.15625 1577.527344 L 1720.515625 1577.367188 L 1723.902344 1578.144531 M 1734.898438 1598.042969 L 1733.863281 1598.808594 L 1726.257812 1604.496094 L 1725.179688 1603.769531 L 1734.898438 1598.042969 M 970.617188 1393 L 974.886719 1398.511719 C 975.101562 1400.609375 975.339844 1403.433594 975.609375 1406.984375 L 967.335938 1425.035156 C 966.578125 1419.59375 965.773438 1413.152344 964.925781 1405.707031 L 966.96875 1401.015625 L 970.617188 1393 M 925.976562 1416.8125 L 925.707031 1416.863281 L 925.441406 1416.914062 C 925.527344 1417.105469 925.613281 1417.296875 925.699219 1417.484375 C 925.792969 1417.261719 925.886719 1417.035156 925.976562 1416.8125 M 956.59375 1424.878906 L 957.207031 1431.0625 L 958.59375 1444.515625 L 956.207031 1449.828125 L 948.683594 1469.167969 L 943.632812 1456.792969 L 944.179688 1455.285156 L 956.089844 1426.035156 L 956.59375 1424.878906 M 933.941406 1398.167969 L 926.0625 1416.609375 L 925.976562 1416.8125 L 928.855469 1416.265625 L 931.070312 1418.566406 L 928.378906 1423.089844 C 927.671875 1421.800781 926.777344 1419.933594 925.699219 1417.484375 L 919.234375 1433.246094 L 908.710938 1430.851562 L 916.046875 1441.269531 L 913.492188 1448.4375 L 893.976562 1482.191406 L 887.21875 1493.109375 L 882.863281 1498.578125 L 879.136719 1501.558594 L 876.714844 1501.777344 L 875.800781 1499.324219 L 876.921875 1493.03125 L 874.855469 1493.058594 L 872.089844 1496.503906 L 875.046875 1487.734375 C 879.320312 1476.898438 884.503906 1464.164062 890.597656 1449.527344 L 893.410156 1441.265625 L 890.855469 1443.15625 L 883.34375 1452.335938 L 885.070312 1446.050781 L 892.777344 1430.640625 L 901.472656 1415.25 L 914.597656 1394.566406 L 928.234375 1397.105469 L 927.59375 1398.8125 C 928.394531 1398.132812 928.816406 1397.601562 928.859375 1397.222656 L 933.941406 1398.167969 M 1378.335938 1346.894531 L 1371.617188 1355.699219 C 1330.996094 1408.296875 1274.40625 1469.152344 1201.847656 1538.265625 C 1153.148438 1582.464844 1115.394531 1614.03125 1088.589844 1632.960938 L 1084.609375 1622.363281 C 1116.324219 1598.886719 1140.574219 1579.839844 1157.363281 1565.230469 C 1188.492188 1538.566406 1216.402344 1513.339844 1241.085938 1489.550781 L 1241.636719 1489.21875 L 1239.132812 1492.585938 L 1244.734375 1488.074219 C 1272.597656 1459.574219 1291.066406 1441.71875 1300.144531 1434.503906 L 1311.875 1422.289062 C 1334 1398.394531 1356.15625 1373.261719 1378.335938 1346.894531 M 1067.542969 1634.355469 L 1067.441406 1634.425781 C 1068.917969 1638.675781 1070.234375 1642.375 1071.390625 1645.519531 L 1076.308594 1642.035156 L 1077.25 1641.339844 L 1067.542969 1634.355469 M 1063.460938 1637.222656 L 1060.886719 1639.03125 L 1062.757812 1644.214844 L 1066.101562 1644.65625 L 1063.460938 1637.222656 M 1060.15625 1639.542969 L 1058.84375 1640.46875 L 1060.101562 1643.867188 L 1061.542969 1644.054688 L 1060.15625 1639.542969 M 1081.929688 1644.710938 L 1077.3125 1647.816406 L 1076.101562 1648.644531 L 1077.542969 1649.5625 L 1077.832031 1649.34375 L 1082.777344 1645.324219 L 1081.929688 1644.710938 M 1066.097656 1656.863281 L 1066.335938 1657.917969 L 1067.292969 1657.207031 L 1066.097656 1656.863281 M 1069.203125 1653.386719 L 1069.875 1655.277344 L 1067.292969 1657.207031 L 1070.925781 1658.238281 L 1072.632812 1663.042969 L 1067.59375 1663.449219 L 1066.335938 1657.917969 L 1064.792969 1659.066406 L 1067.191406 1663.480469 L 1052.621094 1664.648438 L 1064.691406 1656.464844 L 1066.097656 1656.867188 L 1065.828125 1655.691406 C 1066.621094 1655.164062 1067.746094 1654.394531 1069.203125 1653.386719 M 1386.746094 1426.003906 L 1386.457031 1428.363281 L 1385.554688 1437.003906 C 1366.875 1457.296875 1348.171875 1476.917969 1329.453125 1495.863281 C 1282.871094 1542.785156 1239.597656 1582.933594 1199.636719 1616.316406 C 1156.835938 1652.097656 1118.6875 1680.722656 1085.1875 1702.191406 L 1052.996094 1708.679688 L 1027.507812 1682.230469 C 1019.03125 1658.53125 1010.757812 1633.640625 1002.683594 1607.558594 C 993.226562 1577.890625 987.613281 1557.996094 985.839844 1547.871094 C 981.253906 1525.683594 977.089844 1496.304688 973.339844 1459.742188 L 968.535156 1433.457031 L 976.199219 1416.386719 L 976.675781 1423.695312 L 972.199219 1434.273438 L 976.746094 1424.5625 C 980.035156 1462.171875 985 1502.265625 991.644531 1544.839844 C 1003.511719 1591.523438 1013.554688 1626.40625 1021.78125 1649.492188 L 1030.011719 1673.601562 L 1060.636719 1704.867188 L 1090.648438 1692.121094 L 1105.144531 1682.109375 C 1130.371094 1664.949219 1163.699219 1638.980469 1205.125 1604.207031 C 1268.304688 1549.710938 1328.84375 1490.3125 1386.746094 1426.003906 M 1410.125 1435.554688 L 1408.898438 1447.253906 C 1398.847656 1561.839844 1402.179688 1672.519531 1418.894531 1779.296875 L 1478.117188 1800.371094 L 1495.632812 1786.871094 C 1576.109375 1702.433594 1626.675781 1650.664062 1647.328125 1631.5625 L 1658.980469 1621.199219 L 1658.605469 1625.324219 C 1646.933594 1635.855469 1629.242188 1653.4375 1605.535156 1678.070312 C 1553.277344 1732.621094 1521.386719 1766.535156 1509.859375 1779.816406 L 1491.40625 1797.574219 L 1442.003906 1812.5625 L 1412.113281 1775.804688 C 1407.199219 1747.691406 1403.234375 1716.363281 1400.226562 1681.820312 C 1395.441406 1621.910156 1394.289062 1566.527344 1396.769531 1515.667969 C 1399.082031 1475.148438 1400.796875 1451.445312 1401.917969 1444.566406 L 1410.125 1435.554688 M 1382.867188 1465.179688 L 1381.84375 1477.25 C 1373.855469 1642.492188 1383.5625 1754.636719 1410.964844 1813.6875 L 1503.832031 1810.519531 L 1655.808594 1654.738281 L 1632.921875 1854.59375 L 1624.289062 2102.335938 C 1515.730469 2070.078125 1434.148438 2048.355469 1379.539062 2037.167969 L 1336.183594 2030 C 1333.121094 2029.171875 1332.167969 2029.847656 1333.324219 2032.027344 L 1320.699219 2030.382812 C 1353.25 2035.75 1397.871094 2045.433594 1454.554688 2059.429688 C 1467.417969 2062.367188 1487.011719 2067.648438 1513.34375 2075.273438 C 1513.636719 2075.765625 1507.417969 2075.203125 1494.6875 2073.589844 L 1378.507812 2048.738281 C 1250.996094 2027.65625 1167.132812 2012.871094 1126.914062 2004.378906 C 1087.84375 1997.28125 1086.292969 1995.824219 1122.261719 2000.007812 L 989.101562 1975.132812 C 968.386719 1970.914062 972.117188 1970.285156 1000.292969 1973.246094 C 972.714844 1968.410156 950.664062 1964.105469 934.136719 1960.332031 C 898.394531 1956.878906 865.570312 1952.808594 835.671875 1948.125 C 831.746094 1944.75 826.394531 1942.90625 819.613281 1942.59375 C 805.839844 1941.664062 797.496094 1941.335938 794.59375 1941.621094 C 793.792969 1937.125 793.820312 1926.929688 794.675781 1911.03125 L 811.25 1810.726562 L 826.566406 1758.625 C 831.851562 1742.691406 833.734375 1746.445312 832.214844 1769.890625 L 844.601562 1722.957031 C 848.816406 1711.539062 850.390625 1710.546875 849.324219 1719.980469 L 858.898438 1678.996094 C 889.269531 1602.785156 915.261719 1534.933594 936.871094 1475.4375 L 942.507812 1485.132812 L 884.722656 1631.40625 L 892.710938 1618.523438 L 916.4375 1564.058594 L 893.777344 1625.816406 C 904.546875 1599.992188 921.898438 1554.996094 945.828125 1490.832031 C 952.058594 1502.09375 956.445312 1509.0625 958.984375 1511.730469 L 950.058594 1479.507812 L 959.671875 1454.46875 C 966.277344 1513.042969 971.859375 1550.441406 976.417969 1566.667969 C 989.394531 1613.601562 1000.132812 1649.207031 1008.640625 1673.484375 L 1031.484375 1714.273438 L 1099.613281 1710.84375 L 1121.878906 1695.664062 C 1200.585938 1641.5 1287.582031 1564.671875 1382.867188 1465.179688 M 1409.820312 1280.929688 L 1397.679688 1295.847656 C 1286.707031 1430.679688 1180.855469 1535.417969 1080.121094 1610.058594 L 1056.878906 1538.605469 L 1038.578125 1448.238281 C 1041.367188 1499.96875 1053.496094 1555.195312 1074.964844 1613.917969 L 1063.289062 1622.539062 L 1034.671875 1534.722656 C 1027.925781 1505.253906 1019.890625 1450.085938 1010.574219 1369.21875 L 1003.144531 1365.761719 L 1007.683594 1368.195312 C 1015.714844 1436.523438 1023.484375 1490.484375 1030.992188 1530.078125 L 1059.390625 1625.390625 L 1054.90625 1628.664062 C 1056.0625 1626.222656 1057.8125 1629.847656 1060.15625 1639.542969 L 1057.523438 1629.730469 C 1060.660156 1629.3125 1062.636719 1631.8125 1063.460938 1637.222656 L 1078.757812 1626.472656 C 1083.871094 1636.449219 1083.367188 1641.40625 1077.25 1641.339844 C 1081.222656 1645.164062 1083.492188 1645.835938 1084.054688 1643.359375 L 1088.410156 1656.46875 L 1077.542969 1649.5625 L 1073.847656 1652.316406 C 1072.277344 1651.277344 1073.027344 1650.054688 1076.101562 1648.644531 L 1070.804688 1645.277344 L 1066.101562 1644.65625 C 1068.339844 1647.675781 1067.84375 1649.5625 1064.605469 1650.320312 C 1063.164062 1644.269531 1062.144531 1642.179688 1061.542969 1644.054688 L 1063.144531 1651.355469 C 1061.808594 1644.089844 1059.085938 1641.367188 1054.976562 1643.1875 L 1058.84375 1640.46875 C 1045.742188 1603.0625 1035.230469 1568.761719 1027.3125 1537.570312 C 1018.871094 1490.945312 1011.753906 1440.523438 1005.96875 1386.300781 L 999.546875 1364.085938 L 974.097656 1352.230469 L 946.78125 1369.136719 L 942.277344 1379.273438 L 947.308594 1381.183594 C 942.472656 1378.828125 938.828125 1382.621094 936.371094 1392.554688 C 931.082031 1393.023438 930.882812 1389.882812 935.78125 1383.132812 C 934.6875 1381.304688 933.117188 1383.585938 931.074219 1389.976562 L 920.785156 1385.671875 C 907.421875 1395.609375 893.855469 1412.753906 880.082031 1437.105469 C 888.125 1408.1875 896.425781 1391.933594 904.980469 1388.34375 L 876.414062 1393.171875 L 824.207031 1490.847656 L 787.359375 1575.140625 C 771.796875 1630.445312 756.835938 1678.464844 742.480469 1719.199219 L 740.414062 1721.265625 C 739.945312 1715.355469 740.863281 1707.625 743.164062 1698.078125 L 744.902344 1696.890625 L 742.601562 1709.484375 C 746.660156 1702.226562 751.058594 1689.976562 755.789062 1672.734375 L 754.28125 1671.1875 L 748.300781 1686.113281 L 758.96875 1645.679688 L 731.167969 1705.40625 C 720.78125 1733.742188 709.320312 1776.804688 696.785156 1834.589844 L 687.511719 1896.027344 L 685.488281 1946.214844 C 685.605469 1952.132812 684.972656 1952.886719 683.59375 1948.480469 L 683.210938 1960.257812 L 712.589844 2036.460938 L 731.34375 2047.148438 L 713.023438 2033.3125 L 772.503906 2052.417969 C 771.039062 2048.730469 808.523438 2054.847656 884.964844 2070.765625 L 1086.140625 2119.460938 L 1358.371094 2170.835938 C 1418.335938 2183.648438 1489.429688 2203.082031 1571.652344 2229.132812 C 1553.6875 2223.09375 1545.402344 2219.65625 1546.800781 2218.820312 L 1655.769531 2248.691406 L 1711.820312 2239.628906 L 1754.710938 2167.355469 L 1762.746094 1873.859375 L 1767.199219 1820.679688 C 1767.699219 1815.636719 1767.527344 1815.101562 1766.6875 1819.082031 L 1779.09375 1702.582031 L 1786.992188 1572.984375 L 1765.617188 1505.964844 L 1664.566406 1503.808594 C 1645.460938 1517.21875 1625.640625 1531.835938 1605.109375 1547.65625 C 1577.316406 1572.769531 1538.425781 1612.730469 1488.441406 1667.542969 C 1478.503906 1555.363281 1483.785156 1445.164062 1504.277344 1336.945312 L 1409.820312 1280.929688 " fill-opacity="1" fill-rule="nonzero"/></g></g></g><path fill="#ffffff" d="M 1551.550781 2166.816406 C 1551.550781 2166.816406 1684.515625 2179.042969 1717.261719 2172.117188 C 1750.003906 2165.195312 1737.109375 2195.921875 1706.347656 2218.753906 C 1675.585938 2241.589844 1644.824219 2299.125 1661.671875 2381.492188 C 1678.519531 2463.863281 1683.503906 2495.613281 1648.769531 2486.683594 C 1614.035156 2477.753906 1661.988281 2419.199219 1643.972656 2315.023438 C 1625.957031 2210.84375 1555.503906 2196.929688 1549.675781 2195.046875 C 1541.472656 2192.40625 1524.515625 2169.363281 1551.550781 2166.816406 Z M 1551.550781 2166.816406 " fill-opacity="1" fill-rule="nonzero"/><path fill="#ffffff" d="M 1559.484375 2176.078125 C 1559.484375 2176.078125 1692.457031 2188.339844 1725.203125 2181.378906 C 1757.945312 2174.417969 1745.050781 2205.179688 1714.289062 2228.015625 C 1683.527344 2250.851562 1652.765625 2308.386719 1669.605469 2390.753906 C 1686.449219 2473.121094 1691.433594 2504.871094 1656.703125 2495.941406 C 1621.972656 2487.015625 1669.921875 2428.460938 1651.898438 2324.28125 C 1633.875 2220.105469 1563.4375 2206.191406 1557.609375 2204.285156 C 1549.410156 2201.667969 1532.457031 2178.625 1559.484375 2176.078125 Z M 1559.484375 2176.078125 " fill-opacity="1" fill-rule="nonzero"/><path fill="#ffffff" d="M 2177.46875 802.375 C 2177.46875 802.375 2286.550781 812.40625 2313.414062 806.726562 C 2340.277344 801.046875 2329.699219 826.253906 2304.460938 844.984375 C 2279.226562 863.71875 2253.988281 910.921875 2267.808594 978.496094 C 2281.632812 1046.070312 2285.722656 1072.117188 2257.226562 1064.789062 C 2228.726562 1057.464844 2268.070312 1009.429688 2253.289062 923.960938 C 2238.507812 838.496094 2180.710938 827.082031 2175.929688 825.535156 C 2169.203125 823.371094 2155.289062 804.464844 2177.46875 802.375 Z M 2177.46875 802.375 " fill-opacity="1" fill-rule="nonzero"/><path fill="#ffffff" d="M 2183.976562 809.972656 C 2183.976562 809.972656 2293.066406 820.035156 2319.929688 814.324219 C 2346.792969 808.613281 2336.210938 833.851562 2310.976562 852.582031 C 2285.738281 871.316406 2260.503906 918.519531 2274.320312 986.09375 C 2288.136719 1053.667969 2292.222656 1079.714844 2263.734375 1072.386719 C 2235.242188 1065.0625 2274.578125 1017.027344 2259.792969 931.558594 C 2245.003906 846.09375 2187.21875 834.679688 2182.4375 833.117188 C 2175.710938 830.96875 2161.804688 812.0625 2183.976562 809.972656 Z M 2183.976562 809.972656 " fill-opacity="1" fill-rule="nonzero"/><g clip-path="url(#50619af1f5)"><path fill="#ffffff" d="M 4111.820312 1190.089844 C 4112.167969 1186.808594 4111.648438 1183.8125 4108.679688 1180.75 C 4103.300781 1175.214844 4094.6875 1172.5 4087.527344 1170.246094 C 4068.722656 1164.296875 4048.832031 1164.914062 4029.351562 1164.804688 C 4013.71875 1164.722656 3998.023438 1163.398438 3982.816406 1159.597656 C 3967.625 1155.796875 3952.085938 1149.707031 3936.328125 1154.390625 C 3922.050781 1158.621094 3911.4375 1170.90625 3897.445312 1175.988281 C 3888.339844 1179.285156 3877.757812 1179.582031 3870.359375 1185.832031 C 3849.1875 1203.703125 3874.679688 1241.121094 3899.414062 1232.761719 C 3907.335938 1230.078125 3912.761719 1223.5625 3917.699219 1217.160156 C 3921.816406 1211.796875 3928.28125 1200.53125 3935.855469 1199.949219 C 3941.28125 1199.539062 3943.882812 1205.597656 3944.65625 1210.042969 C 3945.636719 1215.660156 3943.789062 1221.589844 3946.882812 1226.765625 C 3951.03125 1233.707031 3961.1875 1233.53125 3967.121094 1229.210938 C 3972.011719 1225.660156 3975.023438 1220.140625 3977.800781 1214.761719 C 3980.796875 1208.957031 3983.886719 1201.90625 3990.199219 1199.253906 C 4004.191406 1193.402344 4014.222656 1208.5 4018.640625 1219.429688 C 4023.71875 1232.003906 4023.71875 1245 4020.167969 1257.90625 C 4016.589844 1270.902344 4008.6875 1281.929688 4002.992188 1294.058594 C 3995.8125 1309.328125 3995.167969 1325.402344 4003.417969 1340.5 C 4012.394531 1356.953125 4030.960938 1358.847656 4043.65625 1344.554688 C 4064.054688 1321.570312 4061.355469 1286.976562 4050.726562 1260.351562 C 4046.386719 1249.496094 4042.253906 1237.066406 4046.101562 1225.457031 C 4046.417969 1224.511719 4046.78125 1223.578125 4047.191406 1222.679688 C 4050.0625 1216.308594 4056.417969 1211.304688 4063.519531 1210.390625 C 4072.117188 1209.273438 4077.792969 1214.683594 4082.761719 1220.945312 C 4087.226562 1226.5625 4091.707031 1233.1875 4098.980469 1235.285156 C 4103.414062 1236.5625 4108.949219 1235.789062 4111.773438 1231.828125 C 4116.125 1225.722656 4113.679688 1218.105469 4111.789062 1211.589844 C 4110.210938 1206.148438 4109.597656 1200.847656 4110.859375 1195.265625 C 4111.253906 1193.449219 4111.648438 1191.730469 4111.820312 1190.089844 Z M 4111.820312 1190.089844 " fill-opacity="1" fill-rule="nonzero"/></g><g clip-path="url(#88cdf33e5a)"><path fill="#ffffff" d="M 3672.492188 2174.3125 C 3665.457031 2166.984375 3654.792969 2164.304688 3644.648438 2163.871094 C 3634.503906 2163.441406 3624.324219 2164.925781 3614.179688 2164.375 C 3600.957031 2163.664062 3587.925781 2159.429688 3576.796875 2152.257812 C 3567.808594 2146.453125 3559.824219 2138.640625 3549.613281 2135.390625 C 3539.949219 2132.296875 3528.90625 2133.871094 3520.472656 2139.519531 C 3514.71875 2143.390625 3510.378906 2149.078125 3507.875 2155.523438 C 3506.628906 2158.738281 3505.816406 2162.125 3505.453125 2165.566406 C 3505.089844 2169.039062 3505.503906 2172.703125 3503.105469 2175.589844 C 3500.234375 2179.046875 3495.015625 2179.046875 3490.554688 2178.578125 C 3479.097656 2177.371094 3465.480469 2175.726562 3458.011719 2184.492188 C 3451.429688 2192.234375 3453.917969 2204.867188 3461.054688 2212.109375 C 3466.929688 2218.070312 3474.878906 2221.683594 3483.089844 2222.980469 C 3487.21875 2223.636719 3491.4375 2223.707031 3495.585938 2223.203125 C 3499.421875 2222.738281 3503.621094 2220.957031 3507.492188 2221.613281 C 3522.390625 2224.136719 3534.195312 2238.515625 3537.339844 2253.726562 C 3540.832031 2270.628906 3536.132812 2288.082031 3530.6875 2304.46875 C 3525.242188 2320.851562 3518.933594 2337.425781 3519.160156 2354.675781 C 3519.316406 2366.203125 3523.980469 2379.371094 3534.972656 2382.878906 C 3544.132812 2385.816406 3554.433594 2380.410156 3559.652344 2372.320312 C 3564.871094 2364.230469 3565.925781 2354.15625 3565.597656 2344.527344 C 3564.40625 2309.359375 3546.828125 2275.777344 3548.886719 2240.640625 C 3549.351562 2232.535156 3552.082031 2223.046875 3559.824219 2220.578125 C 3571.351562 2216.894531 3583.796875 2232.105469 3594.460938 2226.382812 C 3598.832031 2224.035156 3601.234375 2218.660156 3605.953125 2217.085938 C 3609.082031 2216.050781 3612.46875 2216.949219 3615.699219 2217.570312 C 3630.667969 2220.472656 3646.515625 2216.308594 3659.027344 2207.875 C 3661.828125 2205.992188 3664.609375 2203.828125 3667.945312 2203.277344 C 3671.421875 2202.707031 3673.753906 2202.949219 3675.878906 2199.804688 C 3677.539062 2197.332031 3678.453125 2194.460938 3678.679688 2191.488281 C 3679.164062 2185.285156 3676.796875 2178.789062 3672.492188 2174.3125 Z M 3672.492188 2174.3125 " fill-opacity="1" fill-rule="nonzero"/></g></svg>