<svg xmlns="http://www.w3.org/2000/svg" xmlns:xlink="http://www.w3.org/1999/xlink" width="6912" zoomAndPan="magnify" viewBox="0 0 5184 2592.000001" height="3456" preserveAspectRatio="xMidYMid meet" version="1.0"><defs><g/><clipPath id="78e70fc693"><path d="M 99 1372.292969 L 1645 1372.292969 L 1645 2153.492188 L 99 2153.492188 Z M 99 1372.292969 " clip-rule="nonzero"/></clipPath></defs><g fill="#ffffff" fill-opacity="1"><g transform="translate(51.666028, 1280.408381)"><g><path d="M 647.046875 -733.953125 L 898.140625 -733.953125 L 898.140625 -772.59375 L 9.65625 -772.59375 L 9.65625 -733.953125 L 260.75 -733.953125 L 260.75 0 L 647.046875 0 Z M 647.046875 -733.953125 "/></g></g></g><g fill="#ffffff" fill-opacity="1"><g transform="translate(875.33943, 1280.408381)"><g><path d="M 676.015625 -381.46875 L 902.96875 -772.59375 L 859.5 -772.59375 L 656.703125 -420.09375 L 449.0625 -772.59375 L 9.65625 -772.59375 L 289.71875 -275.234375 L 289.71875 0 L 676.015625 0 Z M 676.015625 -381.46875 "/></g></g></g><g fill="#ffffff" fill-opacity="1"><g transform="translate(1703.841186, 1280.408381)"><g><path d="M 77.265625 0 L 463.546875 0 L 463.546875 -270.40625 L 618.0625 -270.40625 C 859.5 -270.40625 1052.65625 -338 1052.65625 -521.5 C 1052.65625 -704.984375 859.5 -772.59375 618.0625 -772.59375 L 77.265625 -772.59375 Z M 618.0625 -309.03125 L 463.546875 -309.03125 L 463.546875 -733.953125 L 618.0625 -733.953125 Z M 618.0625 -309.03125 "/></g></g></g><g fill="#ffffff" fill-opacity="1"><g transform="translate(2691.674007, 1280.408381)"><g><path d="M 77.265625 0 L 463.546875 0 L 463.546875 -772.59375 L 77.265625 -772.59375 Z M 77.265625 0 "/></g></g></g><g fill="#ffffff" fill-opacity="1"><g transform="translate(3148.403088, 1280.408381)"><g><path d="M 77.265625 -772.59375 L 77.265625 0 L 115.890625 0 L 115.890625 -627.734375 L 497.359375 0 L 898.140625 0 L 898.140625 -772.59375 L 859.5 -772.59375 L 859.5 -144.859375 L 478.03125 -772.59375 Z M 77.265625 -772.59375 "/></g></g></g><g fill="#ffffff" fill-opacity="1"><g transform="translate(4039.671372, 1280.408381)"><g><path d="M 647.046875 -347.671875 L 975.390625 -347.671875 L 975.390625 -231.78125 C 975.390625 -53.109375 820.875 -28.96875 647.046875 -28.96875 L 473.203125 -28.96875 L 473.203125 -743.609375 L 647.046875 -743.609375 C 820.875 -743.609375 975.390625 -719.46875 975.390625 -540.8125 L 1014.015625 -540.8125 C 1014.015625 -748.4375 849.84375 -782.25 647.046875 -782.25 L 473.203125 -782.25 C 241.4375 -782.25 48.28125 -714.640625 48.28125 -386.296875 C 48.28125 -57.9375 241.4375 9.65625 473.203125 9.65625 L 647.046875 9.65625 C 849.84375 9.65625 1014.015625 -24.140625 1014.015625 -231.78125 L 1014.015625 -386.296875 L 647.046875 -386.296875 Z M 647.046875 -347.671875 "/></g></g></g><g fill="#ffffff" fill-opacity="1"><g transform="translate(1641.263245, 2125.552489)"><g><path d="M 685.671875 0 L 1134.734375 0 L 772.59375 -584.265625 L 772.59375 -593.921875 L 989.875 -772.59375 L 927.109375 -772.59375 L 463.546875 -386.296875 L 463.546875 -772.59375 L 77.265625 -772.59375 L 77.265625 0 L 463.546875 0 L 463.546875 -338 L 482.875 -352.5 Z M 685.671875 0 "/></g></g></g><g fill="#ffffff" fill-opacity="1"><g transform="translate(2691.862836, 2125.552489)"><g><path d="M 77.265625 0 L 463.546875 0 L 463.546875 -772.59375 L 77.265625 -772.59375 Z M 77.265625 0 "/></g></g></g><g fill="#ffffff" fill-opacity="1"><g transform="translate(3148.591917, 2125.552489)"><g><path d="M 77.265625 -772.59375 L 77.265625 0 L 115.890625 0 L 115.890625 -627.734375 L 497.359375 0 L 898.140625 0 L 898.140625 -772.59375 L 859.5 -772.59375 L 859.5 -144.859375 L 478.03125 -772.59375 Z M 77.265625 -772.59375 "/></g></g></g><g fill="#ffffff" fill-opacity="1"><g transform="translate(4039.860428, 2125.552489)"><g><path d="M 647.046875 -347.671875 L 975.390625 -347.671875 L 975.390625 -231.78125 C 975.390625 -53.109375 820.875 -28.96875 647.046875 -28.96875 L 473.203125 -28.96875 L 473.203125 -743.609375 L 647.046875 -743.609375 C 820.875 -743.609375 975.390625 -719.46875 975.390625 -540.8125 L 1014.015625 -540.8125 C 1014.015625 -748.4375 849.84375 -782.25 647.046875 -782.25 L 473.203125 -782.25 C 241.4375 -782.25 48.28125 -714.640625 48.28125 -386.296875 C 48.28125 -57.9375 241.4375 9.65625 473.203125 9.65625 L 647.046875 9.65625 C 849.84375 9.65625 1014.015625 -24.140625 1014.015625 -231.78125 L 1014.015625 -386.296875 L 647.046875 -386.296875 Z M 647.046875 -347.671875 "/></g></g></g><g clip-path="url(#78e70fc693)"><path fill="#f9b233" d="M 1451.117188 1540.023438 L 1257.445312 1707.75 L 1064.535156 1540.023438 L 871.628906 1372.292969 L 678.71875 1540.023438 L 485.046875 1707.75 L 292.136719 1540.023438 L 99.230469 1372.292969 L 99.230469 2153.492188 L 1644.023438 2153.492188 L 1644.023438 1372.292969 Z M 1451.117188 1540.023438 " fill-opacity="1" fill-rule="nonzero"/></g></svg>