<svg xmlns="http://www.w3.org/2000/svg" xmlns:xlink="http://www.w3.org/1999/xlink" width="6912" zoomAndPan="magnify" viewBox="0 0 5184 2592.000001" height="3456" preserveAspectRatio="xMidYMid meet" version="1.0"><defs><g/><clipPath id="c1612987b3"><path d="M 99 1372.292969 L 1645 1372.292969 L 1645 2153.492188 L 99 2153.492188 Z M 99 1372.292969 " clip-rule="nonzero"/></clipPath></defs><g fill="#000000" fill-opacity="1"><g transform="translate(50.602797, 1304.276221)"><g><path d="M 647.140625 -734.0625 L 898.265625 -734.0625 L 898.265625 -772.703125 L 9.65625 -772.703125 L 9.65625 -734.0625 L 260.78125 -734.0625 L 260.78125 0 L 647.140625 0 Z M 647.140625 -734.0625 "/></g></g></g><g fill="#000000" fill-opacity="1"><g transform="translate(874.485377, 1304.276221)"><g><path d="M 676.109375 -381.515625 L 903.09375 -772.703125 L 859.625 -772.703125 L 656.796875 -420.15625 L 449.125 -772.703125 L 9.65625 -772.703125 L 289.765625 -275.28125 L 289.765625 0 L 676.109375 0 Z M 676.109375 -381.515625 "/></g></g></g><g fill="#000000" fill-opacity="1"><g transform="translate(1703.197331, 1304.276221)"><g><path d="M 77.265625 0 L 463.625 0 L 463.625 -270.4375 L 618.15625 -270.4375 C 859.625 -270.4375 1052.796875 -338.0625 1052.796875 -521.578125 C 1052.796875 -705.09375 859.625 -772.703125 618.15625 -772.703125 L 77.265625 -772.703125 Z M 618.15625 -309.078125 L 463.625 -309.078125 L 463.625 -734.0625 L 618.15625 -734.0625 Z M 618.15625 -309.078125 "/></g></g></g><g fill="#000000" fill-opacity="1"><g transform="translate(2691.277266, 1304.276221)"><g><path d="M 77.265625 0 L 463.625 0 L 463.625 -772.703125 L 77.265625 -772.703125 Z M 77.265625 0 "/></g></g></g><g fill="#000000" fill-opacity="1"><g transform="translate(3148.13078, 1304.276221)"><g><path d="M 77.265625 -772.703125 L 77.265625 0 L 115.90625 0 L 115.90625 -627.8125 L 497.421875 0 L 898.265625 0 L 898.265625 -772.703125 L 859.625 -772.703125 L 859.625 -144.875 L 478.109375 -772.703125 Z M 77.265625 -772.703125 "/></g></g></g><g fill="#000000" fill-opacity="1"><g transform="translate(4039.62396, 1304.276221)"><g><path d="M 647.140625 -347.71875 L 975.53125 -347.71875 L 975.53125 -231.8125 C 975.53125 -53.125 821 -28.96875 647.140625 -28.96875 L 473.28125 -28.96875 L 473.28125 -743.71875 L 647.140625 -743.71875 C 821 -743.71875 975.53125 -719.578125 975.53125 -540.890625 L 1014.171875 -540.890625 C 1014.171875 -748.546875 849.96875 -782.359375 647.140625 -782.359375 L 473.28125 -782.359375 C 241.46875 -782.359375 48.296875 -714.75 48.296875 -386.34375 C 48.296875 -57.953125 241.46875 9.65625 473.28125 9.65625 L 647.140625 9.65625 C 849.96875 9.65625 1014.171875 -24.140625 1014.171875 -231.8125 L 1014.171875 -386.34375 L 647.140625 -386.34375 Z M 647.140625 -347.71875 "/></g></g></g><g fill="#000000" fill-opacity="1"><g transform="translate(1640.411291, 2163.444716)"><g><path d="M 685.765625 0 L 1134.90625 0 L 772.703125 -584.359375 L 772.703125 -594.015625 L 990.015625 -772.703125 L 927.234375 -772.703125 L 463.625 -386.34375 L 463.625 -772.703125 L 77.265625 -772.703125 L 77.265625 0 L 463.625 0 L 463.625 -338.0625 L 482.9375 -352.546875 Z M 685.765625 0 "/></g></g></g><g fill="#000000" fill-opacity="1"><g transform="translate(2691.272363, 2163.444716)"><g><path d="M 77.265625 0 L 463.625 0 L 463.625 -772.703125 L 77.265625 -772.703125 Z M 77.265625 0 "/></g></g></g><g fill="#000000" fill-opacity="1"><g transform="translate(3148.125967, 2163.444716)"><g><path d="M 77.265625 -772.703125 L 77.265625 0 L 115.90625 0 L 115.90625 -627.8125 L 497.421875 0 L 898.265625 0 L 898.265625 -772.703125 L 859.625 -772.703125 L 859.625 -144.875 L 478.109375 -772.703125 Z M 77.265625 -772.703125 "/></g></g></g><g fill="#000000" fill-opacity="1"><g transform="translate(4039.619237, 2163.444716)"><g><path d="M 647.140625 -347.71875 L 975.53125 -347.71875 L 975.53125 -231.8125 C 975.53125 -53.125 821 -28.96875 647.140625 -28.96875 L 473.28125 -28.96875 L 473.28125 -743.71875 L 647.140625 -743.71875 C 821 -743.71875 975.53125 -719.578125 975.53125 -540.890625 L 1014.171875 -540.890625 C 1014.171875 -748.546875 849.96875 -782.359375 647.140625 -782.359375 L 473.28125 -782.359375 C 241.46875 -782.359375 48.296875 -714.75 48.296875 -386.34375 C 48.296875 -57.953125 241.46875 9.65625 473.28125 9.65625 L 647.140625 9.65625 C 849.96875 9.65625 1014.171875 -24.140625 1014.171875 -231.8125 L 1014.171875 -386.34375 L 647.140625 -386.34375 Z M 647.140625 -347.71875 "/></g></g></g><g clip-path="url(#c1612987b3)"><path fill="#f9b233" d="M 1451.117188 1540.023438 L 1257.445312 1707.75 L 1064.535156 1540.023438 L 871.628906 1372.292969 L 678.71875 1540.023438 L 485.046875 1707.75 L 292.136719 1540.023438 L 99.230469 1372.292969 L 99.230469 2153.492188 L 1644.023438 2153.492188 L 1644.023438 1372.292969 Z M 1451.117188 1540.023438 " fill-opacity="1" fill-rule="nonzero"/></g></svg>